HIERARCHY
ROOT Hips
{
	OFFSET 0.000000 97.167313 0.000000
	CHANNELS 6 Xposition Yposition Zposition Xrotation Yrotation Zrotation
	JOINT Spine
	{
		OFFSET 0.000000 13.784798 0.064400
		CHANNELS 3 Xrotation Yrotation Zrotation
		JOINT Spine1
		{
			OFFSET 0.000000 12.037903 0.404700
			CHANNELS 3 Xrotation Yrotation Zrotation
			JOINT Spine2
			{
				OFFSET 0.000000 17.795601 0.420200
				CHANNELS 3 Xrotation Yrotation Zrotation
				JOINT Neck
				{
					OFFSET 0.000000 39.131302 11.954600
					CHANNELS 3 Xrotation Yrotation Zrotation
					JOINT Head
					{
						OFFSET 0.000000 14.456192 15.627699
						CHANNELS 3 Xrotation Yrotation Zrotation
						JOINT HeadTop_End
						{
							OFFSET 0.000000 15.703506 7.603401
							CHANNELS 3 Xrotation Yrotation Zrotation
							End Site
							{
								OFFSET 0.000000 17.447403 0.000000
							}
						}
					}
				}
				JOINT LeftShoulder
				{
					OFFSET 17.399500 24.608795 1.168800
					CHANNELS 3 Xrotation Yrotation Zrotation
					JOINT LeftArm
					{
						OFFSET 18.980635 5.765305 1.818600
						CHANNELS 3 Xrotation Yrotation Zrotation
						JOINT LeftForeArm
						{
							OFFSET 49.290169 0.000000 0.000000
							CHANNELS 3 Xrotation Yrotation Zrotation
							JOINT LeftHand
							{
								OFFSET 31.562012 0.000000 0.000000
								CHANNELS 3 Xrotation Yrotation Zrotation
								JOINT LeftHandThumb1
								{
									OFFSET 6.133995 -4.388519 7.076070
									CHANNELS 3 Xrotation Yrotation Zrotation
									JOINT LeftHandThumb2
									{
										OFFSET 6.037666 -3.485840 3.485847
										CHANNELS 3 Xrotation Yrotation Zrotation
										JOINT LeftHandThumb3
										{
											OFFSET 6.496506 -3.750763 3.750761
											CHANNELS 3 Xrotation Yrotation Zrotation
											JOINT LeftHandThumb4
											{
												OFFSET 5.616882 -3.242905 3.242910
												CHANNELS 3 Xrotation Yrotation Zrotation
												End Site
												{
													OFFSET -1.254608 7.132141 0.375429
												}
											}
										}
									}
								}
								JOINT LeftHandPinky1
								{
									OFFSET 18.920792 -0.453171 -11.426712
									CHANNELS 3 Xrotation Yrotation Zrotation
									JOINT LeftHandPinky2
									{
										OFFSET 4.919586 0.000000 0.000000
										CHANNELS 3 Xrotation Yrotation Zrotation
										JOINT LeftHandPinky3
										{
											OFFSET 5.233047 0.000000 0.000000
											CHANNELS 3 Xrotation Yrotation Zrotation
											JOINT LeftHandPinky4
											{
												OFFSET 5.571716 0.000000 0.000000
												CHANNELS 3 Xrotation Yrotation Zrotation
												End Site
												{
													OFFSET -3.459808 4.342407 -0.466164
												}
											}
										}
									}
								}
								JOINT LeftHandRing1
								{
									OFFSET 22.726120 -0.094986 -6.500475
									CHANNELS 3 Xrotation Yrotation Zrotation
									JOINT LeftHandRing2
									{
										OFFSET 6.408615 0.000000 0.000000
										CHANNELS 3 Xrotation Yrotation Zrotation
										JOINT LeftHandRing3
										{
											OFFSET 6.150223 0.000000 0.000000
											CHANNELS 3 Xrotation Yrotation Zrotation
											JOINT LeftHandRing4
											{
												OFFSET 6.145386 0.000000 0.000000
												CHANNELS 3 Xrotation Yrotation Zrotation
												End Site
												{
													OFFSET -3.671402 4.923981 -0.202372
												}
											}
										}
									}
								}
								JOINT LeftHandMiddle1
								{
									OFFSET 23.373947 0.000000 0.000001
									CHANNELS 3 Xrotation Yrotation Zrotation
									JOINT LeftHandMiddle2
									{
										OFFSET 6.996567 0.000000 0.000000
										CHANNELS 3 Xrotation Yrotation Zrotation
										JOINT LeftHandMiddle3
										{
											OFFSET 7.015945 0.000000 0.000000
											CHANNELS 3 Xrotation Yrotation Zrotation
											JOINT LeftHandMiddle4
											{
												OFFSET 7.721573 0.000000 0.000000
												CHANNELS 3 Xrotation Yrotation Zrotation
												End Site
												{
													OFFSET -4.651108 6.158463 0.251582
												}
											}
										}
									}
								}
								JOINT LeftHandIndex1
								{
									OFFSET 21.310577 -0.490082 6.209344
									CHANNELS 3 Xrotation Yrotation Zrotation
									JOINT LeftHandIndex2
									{
										OFFSET 7.536453 0.000000 0.000000
										CHANNELS 3 Xrotation Yrotation Zrotation
										JOINT LeftHandIndex3
										{
											OFFSET 7.512344 0.000000 0.000000
											CHANNELS 3 Xrotation Yrotation Zrotation
											JOINT LeftHandIndex4
											{
												OFFSET 10.212402 0.000000 0.000001
												CHANNELS 3 Xrotation Yrotation Zrotation
												End Site
												{
													OFFSET -5.180801 8.690506 1.388433
												}
											}
										}
									}
								}
							}
						}
					}
				}
				JOINT RightShoulder
				{
					OFFSET -17.399500 24.608795 1.168800
					CHANNELS 3 Xrotation Yrotation Zrotation
					JOINT RightArm
					{
						OFFSET -18.980635 5.765305 1.818600
						CHANNELS 3 Xrotation Yrotation Zrotation
						JOINT RightForeArm
						{
							OFFSET -49.290169 0.000000 0.000000
							CHANNELS 3 Xrotation Yrotation Zrotation
							JOINT RightHand
							{
								OFFSET -31.562012 0.000000 0.000000
								CHANNELS 3 Xrotation Yrotation Zrotation
								JOINT RightHandThumb1
								{
									OFFSET -6.133995 -4.388519 7.076070
									CHANNELS 3 Xrotation Yrotation Zrotation
									JOINT RightHandThumb2
									{
										OFFSET -6.037666 -3.485840 3.485847
										CHANNELS 3 Xrotation Yrotation Zrotation
										JOINT RightHandThumb3
										{
											OFFSET -6.496506 -3.750763 3.750761
											CHANNELS 3 Xrotation Yrotation Zrotation
											JOINT RightHandThumb4
											{
												OFFSET -5.616882 -3.242905 3.242910
												CHANNELS 3 Xrotation Yrotation Zrotation
												End Site
												{
													OFFSET 1.254608 7.132141 0.375429
												}
											}
										}
									}
								}
								JOINT RightHandIndex1
								{
									OFFSET -21.310577 -0.490082 6.209344
									CHANNELS 3 Xrotation Yrotation Zrotation
									JOINT RightHandIndex2
									{
										OFFSET -7.536453 0.000000 0.000000
										CHANNELS 3 Xrotation Yrotation Zrotation
										JOINT RightHandIndex3
										{
											OFFSET -7.512344 0.000000 0.000000
											CHANNELS 3 Xrotation Yrotation Zrotation
											JOINT RightHandIndex4
											{
												OFFSET -10.212402 0.000000 0.000001
												CHANNELS 3 Xrotation Yrotation Zrotation
												End Site
												{
													OFFSET 5.180801 8.690506 1.388433
												}
											}
										}
									}
								}
								JOINT RightHandMiddle1
								{
									OFFSET -23.373947 0.000000 0.000001
									CHANNELS 3 Xrotation Yrotation Zrotation
									JOINT RightHandMiddle2
									{
										OFFSET -6.996567 0.000000 0.000000
										CHANNELS 3 Xrotation Yrotation Zrotation
										JOINT RightHandMiddle3
										{
											OFFSET -7.015945 0.000000 0.000000
											CHANNELS 3 Xrotation Yrotation Zrotation
											JOINT RightHandMiddle4
											{
												OFFSET -7.721573 0.000000 0.000000
												CHANNELS 3 Xrotation Yrotation Zrotation
												End Site
												{
													OFFSET 4.651108 6.158463 0.251582
												}
											}
										}
									}
								}
								JOINT RightHandRing1
								{
									OFFSET -22.726120 -0.094986 -6.500475
									CHANNELS 3 Xrotation Yrotation Zrotation
									JOINT RightHandRing2
									{
										OFFSET -6.408615 0.000000 0.000000
										CHANNELS 3 Xrotation Yrotation Zrotation
										JOINT RightHandRing3
										{
											OFFSET -6.150223 0.000000 0.000000
											CHANNELS 3 Xrotation Yrotation Zrotation
											JOINT RightHandRing4
											{
												OFFSET -6.145386 0.000000 0.000000
												CHANNELS 3 Xrotation Yrotation Zrotation
												End Site
												{
													OFFSET 3.671402 4.923981 -0.202372
												}
											}
										}
									}
								}
								JOINT RightHandPinky1
								{
									OFFSET -18.920792 -0.453171 -11.426712
									CHANNELS 3 Xrotation Yrotation Zrotation
									JOINT RightHandPinky2
									{
										OFFSET -4.919586 0.000000 0.000000
										CHANNELS 3 Xrotation Yrotation Zrotation
										JOINT RightHandPinky3
										{
											OFFSET -5.233047 0.000000 0.000000
											CHANNELS 3 Xrotation Yrotation Zrotation
											JOINT RightHandPinky4
											{
												OFFSET -5.571716 0.000000 0.000000
												CHANNELS 3 Xrotation Yrotation Zrotation
												End Site
												{
													OFFSET 3.459808 4.342407 -0.466164
												}
											}
										}
									}
								}
							}
						}
					}
				}
			}
		}
	}
	JOINT LeftUpLeg
	{
		OFFSET 19.899099 -7.885101 -3.429500
		CHANNELS 3 Xrotation Yrotation Zrotation
		JOINT LeftLeg
		{
			OFFSET 1.745560 -36.997807 10.304700
			CHANNELS 3 Xrotation Yrotation Zrotation
			JOINT LeftFoot
			{
				OFFSET -1.745558 -29.803308 -13.615400
				CHANNELS 3 Xrotation Yrotation Zrotation
				JOINT LeftToeBase
				{
					OFFSET 1.181900 -18.539904 15.226099
					CHANNELS 3 Xrotation Yrotation Zrotation
					JOINT LeftToe_End
					{
						OFFSET -0.863701 1.402801 16.534700
						CHANNELS 3 Xrotation Yrotation Zrotation
						End Site
						{
							OFFSET 0.000000 16.616566 0.000000
						}
					}
				}
			}
		}
	}
	JOINT RightUpLeg
	{
		OFFSET -19.899099 -7.885101 -3.429500
		CHANNELS 3 Xrotation Yrotation Zrotation
		JOINT RightLeg
		{
			OFFSET -1.745560 -36.997807 10.304700
			CHANNELS 3 Xrotation Yrotation Zrotation
			JOINT RightFoot
			{
				OFFSET 1.745558 -29.803308 -13.615400
				CHANNELS 3 Xrotation Yrotation Zrotation
				JOINT RightToeBase
				{
					OFFSET -1.181900 -18.539904 15.226099
					CHANNELS 3 Xrotation Yrotation Zrotation
					JOINT RightToe_End
					{
						OFFSET 0.863701 1.402801 16.534700
						CHANNELS 3 Xrotation Yrotation Zrotation
						End Site
						{
							OFFSET 0.000000 16.616566 0.000000
						}
					}
				}
			}
		}
	}
}
MOTION
Frames: 4
Frame Time: 0.033333
-1.637960 61.757126 1.654814 16.159331 7.528624 4.905531 11.282710 -16.702292 10.296467 2.869505 -4.087949 0.126404 2.861626 -4.312289 0.311450 -0.688861 2.356462 -4.369682 -6.951124 9.321999 -11.106349 0.000000 0.000000 -0.000000 2.870349 -11.957096 6.152311 -33.803696 -70.877570 -6.927831 -0.000316 -94.709575 -0.000336 15.904406 -20.838175 11.426080 -0.641290 -25.085680 -17.036590 9.921281 43.708812 4.995309 -9.008295 -8.994656 12.231536 -0.000003 0.000001 -0.000001 3.330819 7.991517 -51.892567 2.215602 4.587680 -51.537998 2.214915 4.587109 -51.529204 0.000000 -0.000000 -0.000000 2.419551 7.260319 -40.642969 1.527856 3.946427 -42.314607 1.667319 4.094022 -44.303588 -0.000000 -0.000001 0.000005 1.477214 6.431020 -28.677980 0.890858 3.107310 -31.987880 1.141447 3.475882 -36.350403 -0.000003 -0.000002 0.000004 0.546913 4.942546 -11.641936 0.187727 1.472633 -14.528630 0.212816 1.566224 -15.474955 -0.000001 -0.000000 0.000001 1.124718 1.331167 15.116532 -9.590836 -31.513181 40.008400 0.000001 10.721305 -0.000001 16.783648 19.030295 -20.612601 -6.394372 8.753687 -2.627191 8.270366 -29.434837 -1.684814 -7.568536 8.340463 -10.032335 0.000002 0.000002 -0.000002 -1.791222 6.483426 11.714585 0.189249 -1.315426 16.372472 0.199577 -1.350090 16.816587 0.000000 0.000000 0.000001 -1.298707 1.214686 17.888057 0.309493 -1.671021 20.984588 0.372128 -1.825893 23.037313 0.000001 0.000003 -0.000004 -0.118585 -2.982259 25.427645 0.400616 -1.891413 23.915025 0.468781 -2.038157 25.903627 -0.000002 0.000002 -0.000005 0.003139 -3.566924 32.442101 0.622455 -2.327943 29.936128 0.622142 -2.327382 29.928287 0.000000 -0.000002 0.000005 31.792601 4.879005 -5.749219 26.885766 7.793076 -10.268616 -32.770889 18.051224 -15.302282 -42.282402 -0.000025 -0.000008 0.000000 -0.000004 0.000000 -92.506279 0.548356 -0.005686 42.533743 -13.583754 -1.595783 25.045320 -26.180574 -13.931553 -4.481359 0.000020 0.000011 -0.000001 -0.000001 -0.000000 
-1.788533 60.358673 1.402775 17.239625 8.900632 2.340659 9.988983 -16.137860 8.657330 3.061627 -4.419879 -0.289863 3.052500 -4.596378 -0.128497 -0.912489 1.925385 -2.779460 -5.029005 8.749997 -10.064971 0.000000 0.000000 0.000000 3.301010 -8.812030 12.244026 -43.889023 -61.741932 -13.510197 -0.000287 -91.854713 -0.000349 18.801913 -21.956283 16.200013 -0.517349 -24.790569 -16.977878 9.892141 43.459650 4.938397 -9.027317 -9.071337 12.162911 -0.000000 -0.000001 -0.000005 3.262674 7.948871 -51.552649 2.188616 4.566156 -51.199706 2.188024 4.565703 -51.192316 -0.000000 0.000002 -0.000005 2.367920 7.210506 -40.375328 1.508092 3.924665 -42.026618 1.646940 4.073086 -44.017434 -0.000001 0.000003 0.000003 1.415570 6.328086 -28.494417 0.878640 3.087690 -31.761814 1.128935 3.458846 -36.143384 0.000004 0.000001 0.000006 0.506936 4.774084 -11.653697 0.187721 1.472628 -14.528629 0.213356 1.568153 -15.494549 -0.000001 -0.000001 0.000003 1.248502 -0.154552 12.664939 -13.379974 -32.530388 45.355581 0.000010 22.925791 0.000002 17.371878 22.015535 -24.456512 -6.637767 9.382719 -2.501512 8.332522 -29.989581 -1.762160 -7.436754 7.702339 -10.243595 -0.000000 -0.000003 0.000002 -1.618714 6.355319 11.579174 0.191663 -1.323658 16.477678 0.176797 -1.272311 15.821315 0.000001 0.000001 -0.000003 -1.236222 1.176769 17.342957 0.306154 -1.662279 20.869730 0.364439 -1.807722 22.794795 -0.000000 0.000001 -0.000006 -0.109260 -2.995232 25.311938 0.400829 -1.891914 23.921786 0.422119 -1.939171 24.558761 -0.000000 0.000001 -0.000005 0.147379 -3.854423 31.625917 0.598582 -2.286012 29.343056 0.594751 -2.279190 29.246809 -0.000001 -0.000002 0.000002 33.662085 4.366119 -5.513041 24.632679 8.753084 -9.645787 -43.062683 17.867560 -9.995805 -33.679946 0.000006 -0.000008 0.000001 -0.000004 0.000001 -94.593598 -1.072845 -0.638258 43.977116 -14.705276 -1.691481 24.550270 -26.057354 -13.846463 -4.524698 0.000002 0.000008 0.000000 -0.000001 0.000000 
-0.987125 60.586876 2.534126 19.271290 9.154404 0.429364 8.868814 -13.978863 7.648319 3.391882 -3.619912 -0.987586 3.377900 -3.757147 -0.852829 -1.050913 1.647010 -3.433673 -2.050140 5.777480 -8.477072 0.000002 -0.000000 -0.000000 3.073944 -7.347459 13.229411 -48.985861 -53.181919 -16.852447 0.000323 -85.689204 0.000323 18.752289 -21.408958 16.709542 -0.395693 -24.504137 -16.922591 9.863773 43.216557 4.881602 -9.041979 -9.148680 12.094473 -0.000002 0.000001 0.000000 3.196477 7.906322 -51.229383 2.163313 4.545762 -50.881166 2.162357 4.545004 -50.869162 -0.000000 0.000003 -0.000000 2.319696 7.162578 -40.143703 1.489530 3.904015 -41.754736 1.627255 4.052674 -43.739667 0.000000 0.000000 0.000003 1.359360 6.230448 -28.381316 0.865813 3.066915 -31.522955 1.116826 3.442230 -35.942160 -0.000000 -0.000002 0.000006 0.460940 4.612890 -11.722237 0.187600 1.472104 -14.523470 0.213962 1.570329 -15.516574 -0.000000 0.000001 0.000001 1.392738 -2.445246 11.312076 -24.478780 -32.931388 40.937586 0.000018 37.517136 -0.000009 14.671890 16.812396 -22.584242 -6.879978 10.046293 -2.367239 8.395850 -30.559738 -1.840042 -7.301811 7.035702 -10.460203 -0.000000 0.000001 0.000001 -1.435633 6.230645 11.390554 0.192686 -1.327090 16.521741 0.153433 -1.186802 14.732667 -0.000002 -0.000003 -0.000001 -1.171484 1.142467 16.744303 0.300346 -1.646976 20.668542 0.355249 -1.785703 22.501633 0.000001 0.000000 -0.000008 -0.100297 -3.007329 25.191152 0.397941 -1.885400 23.834235 0.374150 -1.830623 23.100451 0.000000 0.000001 0.000000 0.289982 -4.155106 30.793689 0.572344 -2.238727 28.678264 0.565859 -2.226837 28.511805 -0.000002 -0.000003 0.000000 32.303533 4.858761 -4.082221 23.490412 8.575507 -9.591026 -41.709544 18.016444 -10.554144 -34.089631 0.000002 0.000003 -0.000001 -0.000000 -0.000001 -95.680889 -4.222555 -1.662886 45.191288 -12.709044 -1.711631 22.421788 -26.383855 -13.657666 -4.529254 -0.000016 -0.000004 0.000000 0.000001 0.000000 
-0.153127 61.465141 4.407898 21.531394 9.144541 -1.155602 7.837967 -11.206645 6.813634 3.933906 -2.427125 -1.922208 3.916297 -2.521635 -1.813022 0.407024 1.356153 -4.474904 1.427763 2.345034 -6.314402 -0.000001 -0.000000 -0.000000 2.715988 -8.408062 10.599687 -48.514834 -43.393022 -16.418323 -0.000019 -77.895862 -0.000024 17.237236 -17.253615 15.563862 -0.259597 -24.210777 -16.866700 9.834743 42.967115 4.824438 -9.056662 -9.226030 12.026040 -0.000003 -0.000000 -0.000002 3.129291 7.862541 -50.890391 2.136618 4.523985 -50.543536 2.135783 4.523314 -50.532936 -0.000001 0.000001 -0.000004 2.272631 7.114971 -39.921318 1.470011 3.882087 -41.467141 1.607128 4.031580 -43.454056 0.000002 -0.000002 -0.000000 1.306329 6.136013 -28.310417 0.851766 3.043913 -31.259283 1.104451 3.425135 -35.735601 0.000003 -0.000001 0.000004 0.412037 4.456773 -11.832209 0.187033 1.469961 -14.501714 0.214499 1.572280 -15.536409 -0.000001 0.000003 0.000001 1.217735 -2.093306 10.420223 -42.237924 -33.071790 29.990811 0.000008 48.912979 -0.000012 10.264508 14.849274 -18.456641 -7.123060 10.739049 -2.220478 8.460338 -31.145577 -1.918446 -7.164033 6.340093 -10.682062 -0.000001 0.000001 0.000001 -1.244147 6.106945 11.152770 0.192415 -1.326170 16.509974 0.130060 -1.094066 13.558253 -0.000000 -0.000003 0.000003 -1.104760 1.110739 16.096314 0.292336 -1.625601 20.388079 0.344738 -1.760128 22.161969 0.000000 0.000001 0.000003 -0.091622 -3.018747 25.065650 0.392227 -1.872428 23.660028 0.325835 -1.712981 21.537892 -0.000001 -0.000002 -0.000003 0.429929 -4.468379 29.946719 0.544128 -2.186396 27.947563 0.535771 -2.170575 27.727604 0.000002 0.000001 -0.000001 28.472644 7.189446 -2.162423 25.353495 7.341927 -9.240454 -34.812627 17.837954 -13.366073 -41.548440 0.000003 -0.000013 0.000001 0.000001 -0.000000 -96.237707 -8.722615 -2.895267 46.570275 -9.288285 -1.750973 18.832428 -26.870803 -14.248893 -3.964375 0.000000 0.000001 -0.000000 -0.000003 -0.000000 
